<svg xmlns="http://www.w3.org/2000/svg" viewBox="0 0 1440 320"><path fill="#fde5ea" fill-opacity="1" d="M0,128L12.6,112C25.3,96,51,64,76,74.7C101.1,85,126,139,152,186.7C176.8,235,202,277,227,272C252.6,267,278,213,303,202.7C328.4,192,354,224,379,234.7C404.2,245,429,235,455,213.3C480,192,505,160,531,170.7C555.8,181,581,235,606,245.3C631.6,256,657,224,682,197.3C707.4,171,733,149,758,170.7C783.2,192,808,256,834,256C858.9,256,884,192,909,181.3C934.7,171,960,213,985,213.3C1010.5,213,1036,171,1061,138.7C1086.3,107,1112,85,1137,112C1162.1,139,1187,213,1213,234.7C1237.9,256,1263,224,1288,181.3C1313.7,139,1339,85,1364,96C1389.5,107,1415,181,1427,218.7L1440,256L1440,0L1427.4,0C1414.7,0,1389,0,1364,0C1338.9,0,1314,0,1288,0C1263.2,0,1238,0,1213,0C1187.4,0,1162,0,1137,0C1111.6,0,1086,0,1061,0C1035.8,0,1011,0,985,0C960,0,935,0,909,0C884.2,0,859,0,834,0C808.4,0,783,0,758,0C732.6,0,707,0,682,0C656.8,0,632,0,606,0C581.1,0,556,0,531,0C505.3,0,480,0,455,0C429.5,0,404,0,379,0C353.7,0,328,0,303,0C277.9,0,253,0,227,0C202.1,0,177,0,152,0C126.3,0,101,0,76,0C50.5,0,25,0,13,0L0,0Z"></path></svg>