<svg xmlns="http://www.w3.org/2000/svg" viewBox="0 0 1440 320"><path fill="#fde5ea" fill-opacity="1" d="M0,256L30,218.7C60,181,120,107,180,69.3C240,32,300,32,360,58.7C420,85,480,139,540,170.7C600,203,660,213,720,224C780,235,840,245,900,224C960,203,1020,149,1080,133.3C1140,117,1200,139,1260,154.7C1320,171,1380,181,1410,186.7L1440,192L1440,0L1410,0C1380,0,1320,0,1260,0C1200,0,1140,0,1080,0C1020,0,960,0,900,0C840,0,780,0,720,0C660,0,600,0,540,0C480,0,420,0,360,0C300,0,240,0,180,0C120,0,60,0,30,0L0,0Z"></path></svg>