<svg xmlns="http://www.w3.org/2000/svg" viewBox="0 0 1440 320"><path fill="#fde5ea" fill-opacity="1" d="M0,256L30,218.7C60,181,120,107,180,69.3C240,32,300,32,360,58.7C420,85,480,139,540,170.7C600,203,660,213,720,224C780,235,840,245,900,224C960,203,1020,149,1080,133.3C1140,117,1200,139,1260,154.7C1320,171,1380,181,1410,186.7L1440,192L1440,320L1410,320C1380,320,1320,320,1260,320C1200,320,1140,320,1080,320C1020,320,960,320,900,320C840,320,780,320,720,320C660,320,600,320,540,320C480,320,420,320,360,320C300,320,240,320,180,320C120,320,60,320,30,320L0,320Z"></path></svg>